<?xml version="1.0" standalone="no"?>
<!DOCTYPE svg PUBLIC "-//W3C//DTD SVG 20010904//EN"
 "http://www.w3.org/TR/2001/REC-SVG-20010904/DTD/svg10.dtd">
<svg version="1.0" xmlns="http://www.w3.org/2000/svg"
 width="192.000000pt" height="192.000000pt" viewBox="0 0 192.000000 192.000000"
 preserveAspectRatio="xMidYMid meet">
<metadata>
Created by potrace 1.14, written by Peter Selinger 2001-2017
</metadata>
<g transform="translate(0.000000,192.000000) scale(0.100000,-0.100000)"
fill="#000000" stroke="none">
<path d="M160 1907 c-49 -16 -132 -102 -148 -154 -17 -59 -18 -1512 0 -1581
18 -71 96 -146 169 -162 39 -8 257 -11 814 -8 l760 3 45 28 c53 34 93 86 109
142 16 58 15 1509 -1 1573 -16 65 -95 144 -160 160 -64 16 -1537 15 -1588 -1z"/>
</g>
</svg>
