<?xml version="1.0" standalone="no"?>
<!DOCTYPE svg PUBLIC "-//W3C//DTD SVG 20010904//EN"
 "http://www.w3.org/TR/2001/REC-SVG-20010904/DTD/svg10.dtd">
<svg version="1.0" xmlns="http://www.w3.org/2000/svg"
 width="192.000000pt" height="192.000000pt" viewBox="0 0 192.000000 192.000000"
 preserveAspectRatio="xMidYMid meet">
<metadata>
Created by potrace 1.14, written by Peter Selinger 2001-2017
</metadata>
<g transform="translate(0.000000,192.000000) scale(0.100000,-0.100000)"
fill="#000000" stroke="none">
<path d="M180 1911 c-69 -22 -121 -65 -156 -131 -18 -33 -19 -73 -19 -820 0
-747 1 -787 19 -820 26 -49 64 -88 111 -113 l40 -22 785 0 785 0 40 22 c47 25
85 64 111 113 18 33 19 73 19 820 0 747 -1 787 -19 820 -26 49 -64 88 -111
113 -40 22 -42 22 -810 24 -424 1 -781 -2 -795 -6z m1526 -450 c75 -34 74 -24
74 -656 0 -607 -1 -613 -58 -652 -25 -17 -69 -18 -767 -18 -698 0 -742 1 -767
18 -57 39 -58 45 -58 652 0 632 -1 622 74 656 39 18 80 19 751 19 671 0 712
-1 751 -19z"/>
</g>
</svg>
